<svg xmlns="http://www.w3.org/2000/svg" viewBox="0 0 50 50"><defs><style>.cls-1,.cls-2{fill:none;}.cls-2{stroke:#575756;stroke-linecap:round;stroke-linejoin:round;stroke-width:1.5px;}</style></defs><title>NNW</title><g id="Layer_2" data-name="Layer 2"><g id="Layer_1-2" data-name="Layer 1"><rect class="cls-1" width="50" height="50"/><path class="cls-2" d="M25,4c3.7,0,6.71,2.2,6.71,8.36s-3,8.36-6.71,8.36-6.71-2.2-6.71-8.36S21.3,4,25,4"/><path class="cls-2" d="M29.71,22.18h.09c1.44,1,5.89,2,7.08,2.3a4,4,0,0,1,2.95,2l5.42,11.76a2.8,2.8,0,0,1-1,3L38.91,46H11.09L5.72,41.25a2.8,2.8,0,0,1-1-3l5.42-11.76a4,4,0,0,1,2.95-2c1.19-.25,5.64-1.26,7.08-2.3h.09"/><line class="cls-2" x1="38.2" y1="24.92" x2="20.61" y2="46.04"/><line class="cls-2" x1="40.43" y1="27.79" x2="33.69" y2="46.04"/><path class="cls-2" d="M23.71,46H21A5.07,5.07,0,0,1,16,41h0A5.07,5.07,0,0,1,21,35.9h7.88"/></g></g></svg>